<?xml version="1.0" encoding="UTF-8" standalone="no"?>
<!DOCTYPE svg PUBLIC "-//W3C//DTD SVG 1.1//EN"
 "http://www.w3.org/Graphics/SVG/1.1/DTD/svg11.dtd">
<!-- Generated by graphviz version 2.40.1 (20161225.0304)
 -->
<!-- Title: dependencies Pages: 1 -->
<svg width="1610pt" height="284pt"
 viewBox="0.00 0.00 1610.00 284.00" xmlns="http://www.w3.org/2000/svg" xmlns:xlink="http://www.w3.org/1999/xlink">
<g id="graph0" class="graph" transform="scale(1 1) rotate(0) translate(4 280)">
<title>dependencies</title>
<polygon fill="#ffffff" stroke="transparent" points="-4,4 -4,-280 1606,-280 1606,4 -4,4"/>
<text text-anchor="start" x="780.0091" y="-42.4" font-family="sans-serif" font-weight="bold" font-size="14.00" fill="#000000">Legend</text>
<polygon fill="#ffffb3" stroke="transparent" points="567,-10 567,-30 587,-30 587,-10 567,-10"/>
<text text-anchor="start" x="590.629" y="-15.4" font-family="sans-serif" font-size="14.00" fill="#000000"> &#160;Declarations</text>
<polygon fill="#8dd3c7" stroke="transparent" points="680,-10 680,-30 700,-30 700,-10 680,-10"/>
<text text-anchor="start" x="703.7251" y="-15.4" font-family="sans-serif" font-size="14.00" fill="#000000"> &#160;Module</text>
<polygon fill="#80b1d3" stroke="transparent" points="766,-10 766,-30 786,-30 786,-10 766,-10"/>
<text text-anchor="start" x="789.7812" y="-15.4" font-family="sans-serif" font-size="14.00" fill="#000000"> &#160;Bootstrap</text>
<polygon fill="#fdb462" stroke="transparent" points="863,-10 863,-30 883,-30 883,-10 863,-10"/>
<text text-anchor="start" x="886.6732" y="-15.4" font-family="sans-serif" font-size="14.00" fill="#000000"> &#160;Providers</text>
<polygon fill="#fb8072" stroke="transparent" points="959,-10 959,-30 979,-30 979,-10 959,-10"/>
<text text-anchor="start" x="982.7258" y="-15.4" font-family="sans-serif" font-size="14.00" fill="#000000"> &#160;Exports</text>
<g id="clust1" class="cluster">
<title>cluster_AppModule</title>
<polygon fill="none" stroke="#000000" stroke-dasharray="1,5" points="8,-70 8,-268 1594,-268 1594,-70 8,-70"/>
</g>
<g id="clust2" class="cluster">
<title>cluster_AppModule_declarations</title>
<polygon fill="none" stroke="#000000" points="144,-78 144,-130 1586,-130 1586,-78 144,-78"/>
</g>
<g id="clust13" class="cluster">
<title>cluster_AppModule_imports</title>
<polygon fill="none" stroke="#000000" points="16,-78 16,-130 136,-130 136,-78 16,-78"/>
</g>
<g id="clust15" class="cluster">
<title>cluster_AppModule_bootstrap</title>
<polygon fill="none" stroke="#000000" points="775,-208 775,-260 899,-260 899,-208 775,-208"/>
</g>
<!-- AppComponent -->
<g id="node1" class="node">
<title>AppComponent</title>
<polygon fill="#ffffb3" stroke="#000000" points="1577.9399,-122 1472.0601,-122 1472.0601,-86 1577.9399,-86 1577.9399,-122"/>
<text text-anchor="middle" x="1525" y="-99.8" font-family="Times,serif" font-size="14.00" fill="#000000">AppComponent</text>
</g>
<!-- AppModule -->
<g id="node11" class="node">
<title>AppModule</title>
<polygon fill="#8dd3c7" stroke="#000000" points="878.6571,-187 875.6571,-191 854.6571,-191 851.6571,-187 795.3429,-187 795.3429,-151 878.6571,-151 878.6571,-187"/>
<text text-anchor="middle" x="837" y="-164.8" font-family="Times,serif" font-size="14.00" fill="#000000">AppModule</text>
</g>
<!-- AppComponent&#45;&gt;AppModule -->
<g id="edge1" class="edge">
<title>AppComponent&#45;&gt;AppModule</title>
<path fill="none" stroke="#000000" d="M1525,-122.2479C1525,-145.0179 1525,-181 1525,-181 1525,-181 888.7446,-181 888.7446,-181"/>
<polygon fill="#000000" stroke="#000000" points="888.7447,-177.5001 878.7446,-181 888.7446,-184.5001 888.7447,-177.5001"/>
</g>
<!-- ErrorComponent -->
<g id="node2" class="node">
<title>ErrorComponent</title>
<polygon fill="#ffffb3" stroke="#000000" points="1454.3669,-122 1343.6331,-122 1343.6331,-86 1454.3669,-86 1454.3669,-122"/>
<text text-anchor="middle" x="1399" y="-99.8" font-family="Times,serif" font-size="14.00" fill="#000000">ErrorComponent</text>
</g>
<!-- ErrorComponent&#45;&gt;AppModule -->
<g id="edge2" class="edge">
<title>ErrorComponent&#45;&gt;AppModule</title>
<path fill="none" stroke="#000000" d="M1399,-122.2843C1399,-143.3211 1399,-175 1399,-175 1399,-175 888.7822,-175 888.7822,-175"/>
<polygon fill="#000000" stroke="#000000" points="888.7822,-171.5001 878.7822,-175 888.7822,-178.5001 888.7822,-171.5001"/>
</g>
<!-- HomeComponent -->
<g id="node3" class="node">
<title>HomeComponent</title>
<polygon fill="#ffffb3" stroke="#000000" points="1325.5451,-122 1210.4549,-122 1210.4549,-86 1325.5451,-86 1325.5451,-122"/>
<text text-anchor="middle" x="1268" y="-99.8" font-family="Times,serif" font-size="14.00" fill="#000000">HomeComponent</text>
</g>
<!-- HomeComponent&#45;&gt;AppModule -->
<g id="edge3" class="edge">
<title>HomeComponent&#45;&gt;AppModule</title>
<path fill="none" stroke="#000000" d="M1268,-122.1061C1268,-141.3391 1268,-169 1268,-169 1268,-169 888.7177,-169 888.7177,-169"/>
<polygon fill="#000000" stroke="#000000" points="888.7177,-165.5001 878.7177,-169 888.7177,-172.5001 888.7177,-165.5001"/>
</g>
<!-- NavbarComponent -->
<g id="node4" class="node">
<title>NavbarComponent</title>
<polygon fill="#ffffb3" stroke="#000000" points="1192.0297,-122 1069.9703,-122 1069.9703,-86 1192.0297,-86 1192.0297,-122"/>
<text text-anchor="middle" x="1131" y="-99.8" font-family="Times,serif" font-size="14.00" fill="#000000">NavbarComponent</text>
</g>
<!-- NavbarComponent&#45;&gt;AppModule -->
<g id="edge4" class="edge">
<title>NavbarComponent&#45;&gt;AppModule</title>
<path fill="none" stroke="#000000" d="M1131,-122.0225C1131,-139.3734 1131,-163 1131,-163 1131,-163 888.8108,-163 888.8108,-163"/>
<polygon fill="#000000" stroke="#000000" points="888.8108,-159.5001 878.8108,-163 888.8108,-166.5001 888.8108,-159.5001"/>
</g>
<!-- ProfilComponent -->
<g id="node5" class="node">
<title>ProfilComponent</title>
<polygon fill="#ffffb3" stroke="#000000" points="1051.7176,-122 938.2824,-122 938.2824,-86 1051.7176,-86 1051.7176,-122"/>
<text text-anchor="middle" x="995" y="-99.8" font-family="Times,serif" font-size="14.00" fill="#000000">ProfilComponent</text>
</g>
<!-- ProfilComponent&#45;&gt;AppModule -->
<g id="edge5" class="edge">
<title>ProfilComponent&#45;&gt;AppModule</title>
<path fill="none" stroke="#000000" d="M995,-122.2396C995,-137.5706 995,-157 995,-157 995,-157 888.9263,-157 888.9263,-157"/>
<polygon fill="#000000" stroke="#000000" points="888.9263,-153.5001 878.9263,-157 888.9262,-160.5001 888.9263,-153.5001"/>
</g>
<!-- ProgressRouterComponent -->
<g id="node6" class="node">
<title>ProgressRouterComponent</title>
<polygon fill="#ffffb3" stroke="#000000" points="920.6428,-122 753.3572,-122 753.3572,-86 920.6428,-86 920.6428,-122"/>
<text text-anchor="middle" x="837" y="-99.8" font-family="Times,serif" font-size="14.00" fill="#000000">ProgressRouterComponent</text>
</g>
<!-- ProgressRouterComponent&#45;&gt;AppModule -->
<g id="edge6" class="edge">
<title>ProgressRouterComponent&#45;&gt;AppModule</title>
<path fill="none" stroke="#000000" d="M837,-122.1061C837,-122.1061 837,-140.991 837,-140.991"/>
<polygon fill="#000000" stroke="#000000" points="833.5001,-140.9909 837,-150.991 840.5001,-140.991 833.5001,-140.9909"/>
</g>
<!-- SettingsMenuComponent -->
<g id="node7" class="node">
<title>SettingsMenuComponent</title>
<polygon fill="#ffffb3" stroke="#000000" points="735.6052,-122 576.3948,-122 576.3948,-86 735.6052,-86 735.6052,-122"/>
<text text-anchor="middle" x="656" y="-99.8" font-family="Times,serif" font-size="14.00" fill="#000000">SettingsMenuComponent</text>
</g>
<!-- SettingsMenuComponent&#45;&gt;AppModule -->
<g id="edge7" class="edge">
<title>SettingsMenuComponent&#45;&gt;AppModule</title>
<path fill="none" stroke="#000000" d="M656,-122.2396C656,-137.5706 656,-157 656,-157 656,-157 785.02,-157 785.02,-157"/>
<polygon fill="#000000" stroke="#000000" points="785.0201,-160.5001 795.02,-157 785.02,-153.5001 785.0201,-160.5001"/>
</g>
<!-- SignInComponent -->
<g id="node8" class="node">
<title>SignInComponent</title>
<polygon fill="#ffffb3" stroke="#000000" points="558.1667,-122 439.8333,-122 439.8333,-86 558.1667,-86 558.1667,-122"/>
<text text-anchor="middle" x="499" y="-99.8" font-family="Times,serif" font-size="14.00" fill="#000000">SignInComponent</text>
</g>
<!-- SignInComponent&#45;&gt;AppModule -->
<g id="edge8" class="edge">
<title>SignInComponent&#45;&gt;AppModule</title>
<path fill="none" stroke="#000000" d="M499,-122.0225C499,-139.3734 499,-163 499,-163 499,-163 785.2156,-163 785.2156,-163"/>
<polygon fill="#000000" stroke="#000000" points="785.2156,-166.5001 795.2156,-163 785.2155,-159.5001 785.2156,-166.5001"/>
</g>
<!-- SignOutComponent -->
<g id="node9" class="node">
<title>SignOutComponent</title>
<polygon fill="#ffffb3" stroke="#000000" points="422.0028,-122 293.9972,-122 293.9972,-86 422.0028,-86 422.0028,-122"/>
<text text-anchor="middle" x="358" y="-99.8" font-family="Times,serif" font-size="14.00" fill="#000000">SignOutComponent</text>
</g>
<!-- SignOutComponent&#45;&gt;AppModule -->
<g id="edge9" class="edge">
<title>SignOutComponent&#45;&gt;AppModule</title>
<path fill="none" stroke="#000000" d="M358,-122.1061C358,-141.3391 358,-169 358,-169 358,-169 785.3298,-169 785.3298,-169"/>
<polygon fill="#000000" stroke="#000000" points="785.3299,-172.5001 795.3298,-169 785.3298,-165.5001 785.3299,-172.5001"/>
</g>
<!-- SignUpComponent -->
<g id="node10" class="node">
<title>SignUpComponent</title>
<polygon fill="#ffffb3" stroke="#000000" points="276.1123,-122 151.8877,-122 151.8877,-86 276.1123,-86 276.1123,-122"/>
<text text-anchor="middle" x="214" y="-99.8" font-family="Times,serif" font-size="14.00" fill="#000000">SignUpComponent</text>
</g>
<!-- SignUpComponent&#45;&gt;AppModule -->
<g id="edge10" class="edge">
<title>SignUpComponent&#45;&gt;AppModule</title>
<path fill="none" stroke="#000000" d="M214,-122.2843C214,-143.3211 214,-175 214,-175 214,-175 785.1558,-175 785.1558,-175"/>
<polygon fill="#000000" stroke="#000000" points="785.1559,-178.5001 795.1558,-175 785.1558,-171.5001 785.1559,-178.5001"/>
</g>
<!-- AppComponent  -->
<g id="node13" class="node">
<title>AppComponent </title>
<polygon fill="#80b1d3" stroke="#000000" points="891.439,-252 782.561,-252 782.561,-216 891.439,-216 891.439,-252"/>
<text text-anchor="middle" x="837" y="-229.8" font-family="Times,serif" font-size="14.00" fill="#000000">AppComponent </text>
</g>
<!-- AppModule&#45;&gt;AppComponent  -->
<g id="edge12" class="edge">
<title>AppModule&#45;&gt;AppComponent </title>
<path fill="none" stroke="#000000" stroke-dasharray="1,5" d="M837,-187.1061C837,-187.1061 837,-205.991 837,-205.991"/>
<polygon fill="#000000" stroke="#000000" points="833.5001,-205.9909 837,-215.991 840.5001,-205.991 833.5001,-205.9909"/>
</g>
<!-- RoutingModule -->
<g id="node12" class="node">
<title>RoutingModule</title>
<polygon fill="#8dd3c7" stroke="#000000" points="128.1681,-122 125.1681,-126 104.1681,-126 101.1681,-122 23.8319,-122 23.8319,-86 128.1681,-86 128.1681,-122"/>
<text text-anchor="middle" x="76" y="-99.8" font-family="Times,serif" font-size="14.00" fill="#000000">RoutingModule</text>
</g>
<!-- RoutingModule&#45;&gt;AppModule -->
<g id="edge11" class="edge">
<title>RoutingModule&#45;&gt;AppModule</title>
<path fill="none" stroke="#000000" d="M76,-122.2479C76,-145.0179 76,-181 76,-181 76,-181 785.2735,-181 785.2735,-181"/>
<polygon fill="#000000" stroke="#000000" points="785.2736,-184.5001 795.2735,-181 785.2735,-177.5001 785.2736,-184.5001"/>
</g>
</g>
</svg>
